<?xml version="1.0" encoding="UTF-8"?>
<!DOCTYPE svg PUBLIC "-//W3C//DTD SVG 1.1//EN" "http://www.w3.org/Graphics/SVG/1.1/DTD/svg11.dtd">
<svg xmlns="http://www.w3.org/2000/svg" version="1.1" width="200px" height="200px" style="shape-rendering:geometricPrecision; text-rendering:geometricPrecision; image-rendering:optimizeQuality; fill-rule:evenodd; clip-rule:evenodd" xmlns:xlink="http://www.w3.org/1999/xlink">
<g><path style="opacity:0.999" fill="#cfcfcf" d="M 181.5,249.5 C 183.279,251.344 185.612,252.01 188.5,251.5C 189.885,252.302 189.718,252.969 188,253.5C 186.234,254.233 184.401,254.567 182.5,254.5C 182.695,263.588 183.695,272.588 185.5,281.5C 184.976,284.396 183.476,285.063 181,283.5C 178.943,274.271 177.777,264.937 177.5,255.5C 168.144,256.003 158.81,256.836 149.5,258C 146.28,264.277 142.947,270.443 139.5,276.5C 137.771,275.764 136.771,274.43 136.5,272.5C 138.169,268.496 139.836,264.496 141.5,260.5C 142.751,259.528 142.418,258.861 140.5,258.5C 139.584,258.543 138.917,258.876 138.5,259.5C 123.253,260.979 108.586,264.645 94.5,270.5C 94.5,269.5 94.5,268.5 94.5,267.5C 93.5,267.5 92.5,267.5 91.5,267.5C 108.098,260.852 125.431,256.685 143.5,255C 150.051,238.398 157.551,222.231 166,206.5C 170.456,200.375 175.289,194.542 180.5,189C 182.677,187.798 185.011,187.298 187.5,187.5C 186.003,197.815 184.503,208.149 183,218.5C 182.467,228.836 181.967,239.169 181.5,249.5 Z M 180.5,194.5 C 181.097,194.735 181.43,195.235 181.5,196C 177.771,214.304 176.105,232.804 176.5,251.5C 167.81,252.354 159.144,253.354 150.5,254.5C 156.905,232.566 166.905,212.566 180.5,194.5 Z"/></g>
<g><path style="opacity:1" fill="#dadada" d="M 253.5,250.5 C 252.427,251.251 252.26,252.251 253,253.5C 253.717,252.956 254.217,252.289 254.5,251.5C 256.628,250.371 258.961,250.204 261.5,251C 263.373,252.704 265.04,254.537 266.5,256.5C 266.953,257.458 267.619,258.292 268.5,259C 266.866,259.494 265.199,259.66 263.5,259.5C 261.521,258.188 259.855,256.521 258.5,254.5C 255.433,258.287 252.6,262.287 250,266.5C 249.005,265.934 248.172,265.267 247.5,264.5C 247.82,261.102 247.487,257.768 246.5,254.5C 245.893,254.624 245.56,254.957 245.5,255.5C 241.999,256.797 238.499,256.797 235,255.5C 231.594,260.463 227.094,262.129 221.5,260.5C 220.77,258.994 220.437,257.66 220.5,256.5C 218.261,257.788 215.928,258.788 213.5,259.5C 213.737,258.209 213.404,257.209 212.5,256.5C 215.605,254.199 219.105,252.533 223,251.5C 226.378,246.951 230.878,244.951 236.5,245.5C 236.5,246.5 236.5,247.5 236.5,248.5C 232.237,248.618 229.737,250.618 229,254.5C 233.044,250.285 237.21,249.951 241.5,253.5C 243.323,252.253 245.323,251.586 247.5,251.5C 247.396,237.146 247.896,222.813 249,208.5C 249.147,205.429 249.98,202.596 251.5,200C 254.347,199.056 256.847,199.556 259,201.5C 262.355,218.333 260.522,234.666 253.5,250.5 Z M 254.5,232.5 C 253.566,231.432 253.232,230.099 253.5,228.5C 253.821,220.826 254.321,213.159 255,205.5C 255.552,214.513 255.385,223.513 254.5,232.5 Z"/></g>
<g><path style="opacity:0.999" fill="#d9d9d9" d="M 212.5,256.5 C 213.404,257.209 213.737,258.209 213.5,259.5C 209.687,261.908 205.687,264.075 201.5,266C 199.741,266.798 198.074,266.631 196.5,265.5C 200.28,262.552 202.613,258.719 203.5,254C 202.955,250.987 201.789,250.821 200,253.5C 199.069,255.459 198.236,257.459 197.5,259.5C 195.994,260.747 194.494,260.747 193,259.5C 192.114,244.431 192.78,229.431 195,214.5C 195.534,210.695 196.534,207.029 198,203.5C 201.182,199.576 204.182,199.576 207,203.5C 208.835,219.318 205.669,234.152 197.5,248C 200.897,247.006 204.23,247.34 207.5,249C 209.146,251.229 209.479,253.563 208.5,256C 208.833,256.5 209.167,257 209.5,257.5C 210.417,256.873 211.417,256.539 212.5,256.5 Z M 201.5,207.5 C 202.473,209.948 202.806,212.615 202.5,215.5C 201.5,221.5 200.5,227.5 199.5,233.5C 198.566,232.432 198.232,231.099 198.5,229.5C 199.208,222.124 200.208,214.791 201.5,207.5 Z"/></g>
<g><path style="opacity:0.165" fill="#4c4c4c" d="M 201.5,207.5 C 201.56,206.957 201.893,206.624 202.5,206.5C 203.803,209.645 203.803,212.645 202.5,215.5C 202.806,212.615 202.473,209.948 201.5,207.5 Z"/></g>
<g><path style="opacity:0.322" fill="#5a5a5a" d="M 198.5,229.5 C 198.232,231.099 198.566,232.432 199.5,233.5C 199.443,234.609 199.11,235.609 198.5,236.5C 198.167,236.5 197.833,236.5 197.5,236.5C 197.198,233.941 197.532,231.607 198.5,229.5 Z"/></g>
<g><path style="opacity:0.333" fill="#4e4e4e" d="M 253.5,228.5 C 253.232,230.099 253.566,231.432 254.5,232.5C 254.005,234.482 253.505,236.482 253,238.5C 252.192,234.973 252.359,231.64 253.5,228.5 Z"/></g>
<g><path style="opacity:0.999" fill="#d5d5d5" d="M 318.5,256.5 C 320.5,256.5 321.5,257.5 321.5,259.5C 316.389,262.165 315.056,266.165 317.5,271.5C 316.274,283.259 310.107,287.593 299,284.5C 298.333,282.5 298.333,280.5 299,278.5C 301.55,273.444 304.716,268.777 308.5,264.5C 306.716,263.394 304.882,263.394 303,264.5C 301.72,264.387 300.887,263.72 300.5,262.5C 303.15,259.349 305.984,256.349 309,253.5C 312.958,246.909 311.958,245.576 306,249.5C 305.691,250.766 305.191,251.933 304.5,253C 302.275,253.561 300.275,254.561 298.5,256C 295.24,256.784 292.073,256.617 289,255.5C 285.529,259.989 281.029,261.822 275.5,261C 274.809,259.933 274.309,258.766 274,257.5C 270.762,260.288 267.262,260.954 263.5,259.5C 265.199,259.66 266.866,259.494 268.5,259C 267.619,258.292 266.953,257.458 266.5,256.5C 269.016,256.245 271.35,255.411 273.5,254C 276.833,251.333 280.167,248.667 283.5,246C 286.053,245.149 288.386,245.482 290.5,247C 286.212,248.621 283.378,251.454 282,255.5C 283.798,253.028 286.132,251.361 289,250.5C 295.316,254.939 299.816,253.439 302.5,246C 306.218,243.702 310.218,243.035 314.5,244C 316.991,246.968 317.157,250.135 315,253.5C 309.009,261.293 310.176,262.293 318.5,256.5 Z M 310.5,269.5 C 311.434,270.568 311.768,271.901 311.5,273.5C 310.875,278.452 308.209,281.452 303.5,282.5C 303.491,280.692 303.991,279.025 305,277.5C 307.054,274.953 308.887,272.286 310.5,269.5 Z"/></g>
<g><path style="opacity:0.999" fill="#cecece" d="M 321.5,259.5 C 321.5,257.5 320.5,256.5 318.5,256.5C 321.715,253.446 325.048,250.612 328.5,248C 333.205,245.471 336.872,246.471 339.5,251C 337.972,254.517 335.472,255.683 332,254.5C 331.868,256.323 332.868,257.323 335,257.5C 340.672,255.778 346.172,253.778 351.5,251.5C 351.5,249.5 351.5,247.5 351.5,245.5C 355.759,245.102 357.592,247.102 357,251.5C 358.255,249.406 360.088,248.406 362.5,248.5C 366.781,248.92 371.115,249.087 375.5,249C 376.679,251.513 378.513,253.346 381,254.5C 383.437,253.2 385.937,252.2 388.5,251.5C 386.792,257.526 382.792,259.693 376.5,258C 374.649,256.316 372.982,254.483 371.5,252.5C 369.639,253.528 368.305,255.028 367.5,257C 364.472,258.14 362.305,257.306 361,254.5C 356.878,263.578 353.545,263.578 351,254.5C 343.738,260.284 335.905,261.784 327.5,259C 326.809,257.933 326.309,256.766 326,255.5C 324.629,257.041 323.129,258.375 321.5,259.5 Z"/></g>
<g><path style="opacity:0.29" fill="#535353" d="M 181.5,249.5 C 183.952,250.065 186.285,250.732 188.5,251.5C 185.612,252.01 183.279,251.344 181.5,249.5 Z"/></g>
<g><path style="opacity:0.086" fill="#535353" d="M 253.5,250.5 C 253.5,251.167 253.833,251.5 254.5,251.5C 254.217,252.289 253.717,252.956 253,253.5C 252.26,252.251 252.427,251.251 253.5,250.5 Z"/></g>
<g><path style="opacity:0.114" fill="#343434" d="M 138.5,259.5 C 138.917,258.876 139.584,258.543 140.5,258.5C 142.418,258.861 142.751,259.528 141.5,260.5C 140.791,259.596 139.791,259.263 138.5,259.5 Z"/></g>
<g><path style="opacity:0.367" fill="#4d4d4d" d="M 245.5,255.5 C 245.56,254.957 245.893,254.624 246.5,254.5C 247.487,257.768 247.82,261.102 247.5,264.5C 246.833,261.5 246.167,258.5 245.5,255.5 Z"/></g>
<g><path style="opacity:0.999" fill="#d0d0d0" d="M 91.5,267.5 C 92.5,267.5 93.5,267.5 94.5,267.5C 94.5,268.5 94.5,269.5 94.5,270.5C 82.7566,275.045 78.2566,283.378 81,295.5C 87.9403,302.275 96.1069,304.108 105.5,301C 113.002,298.825 119.502,294.991 125,289.5C 129.352,284.113 133.185,278.447 136.5,272.5C 136.771,274.43 137.771,275.764 139.5,276.5C 126.929,301.453 107.263,309.953 80.5,302C 73.4894,294.561 72.6561,286.394 78,277.5C 81.5519,272.767 86.0519,269.434 91.5,267.5 Z"/></g>
<g><path style="opacity:0.137" fill="#3f3f3f" d="M 310.5,269.5 C 310.56,268.957 310.893,268.624 311.5,268.5C 312.788,270.299 312.788,271.965 311.5,273.5C 311.768,271.901 311.434,270.568 310.5,269.5 Z"/></g>
</svg>
